<?xml version="1.0" standalone="no"?><!DOCTYPE svg PUBLIC "-//W3C//DTD SVG 1.1//EN" "http://www.w3.org/Graphics/SVG/1.1/DTD/svg11.dtd"><svg t="1493904720853" class="icon" style="" viewBox="0 0 1024 1024" version="1.1" xmlns="http://www.w3.org/2000/svg" p-id="8750" xmlns:xlink="http://www.w3.org/1999/xlink" width="32" height="32"><defs><style type="text/css"></style></defs><path d="M438.2 510.9c-46.6 0-84.5 37.9-84.5 84.5s37.9 84.5 84.5 84.5 84.5-37.9 84.5-84.5S484.8 510.9 438.2 510.9zM438.2 647.9c-29 0-52.5-23.5-52.5-52.5s23.5-52.5 52.5-52.5 52.5 23.5 52.5 52.5S467.2 647.9 438.2 647.9z" p-id="8751" fill="#2aa515"></path><path d="M438.2 259.4c-185.6 0-336 150.4-336 336s150.4 336 336 336 336-150.4 336-336S623.7 259.4 438.2 259.4zM742.2 595.4c0 41.1-8 80.9-23.9 118.3-15.3 36.2-37.2 68.7-65.2 96.6-27.9 27.9-60.4 49.9-96.6 65.2-37.5 15.8-77.3 23.9-118.3 23.9s-80.9-8-118.3-23.9c-36.2-15.3-68.7-37.2-96.6-65.2-27.9-27.9-49.9-60.4-65.2-96.6-15.8-37.5-23.9-77.3-23.9-118.3s8-80.9 23.9-118.3c15.3-36.2 37.2-68.7 65.2-96.6 27.9-27.9 60.4-49.9 96.6-65.2 37.5-15.8 77.3-23.9 118.3-23.9s80.9 8 118.3 23.9c36.2 15.3 68.7 37.2 96.6 65.2 27.9 27.9 49.9 60.4 65.2 96.6C734.1 514.5 742.2 554.3 742.2 595.4z" p-id="8752" fill="#2aa515"></path><path d="M878.8 503.8c-0.8 0-1.7 0-2.5 0.1-4.4-11.9-18.8-48.1-45.2-92.1-27.6-46.1-73.9-109.1-140.5-155.2L690.6 110.7c0-8.7-7.1-15.7-15.7-15.7L205.7 95c-8.6 0-15.7 7.1-15.7 15.7 0 0-1.3 170.1-1.4 247.1C250 289.5 339 248.7 438.2 248.7c100.6 0 190.9 42.1 252.4 112.3l0-64.6c52.1 41 89.4 92.5 112.7 131.2 26.1 43.4 40.1 79.5 43.4 88.6-9.8 8.8-15.9 21.5-15.9 35.7 0 26.5 21.5 48 48 48 26.5 0 48-21.5 48-48S905.3 503.8 878.8 503.8zM658.6 288.2c-20.5-15.2-42.7-28.2-66.4-38.9-48.1-21.7-99.9-32.7-154-32.7-53.3 0-104.4 10.7-151.9 31.7-23.3 10.3-45.2 22.9-65.5 37.6 0.3-60 0.8-128.5 1-159l436.8 0L658.6 288.2zM878.8 567.8c-8.8 0-16-7.2-16-16s7.2-16 16-16 16 7.2 16 16S887.6 567.8 878.8 567.8z" p-id="8753" fill="#2aa515"></path></svg>