<?xml version="1.0" standalone="no"?><!DOCTYPE svg PUBLIC "-//W3C//DTD SVG 1.1//EN" "http://www.w3.org/Graphics/SVG/1.1/DTD/svg11.dtd"><svg t="1494419222000" class="icon" style="" viewBox="0 0 1024 1024" version="1.1" xmlns="http://www.w3.org/2000/svg" p-id="2940" xmlns:xlink="http://www.w3.org/1999/xlink" width="64" height="64"><defs><style type="text/css"></style></defs><path d="M908 104h-792c-36 0-66 30-66 66v528c0 36 30 66 66 66h330v102h-168c-18 0-36 12-36 36v24h528v-24c0-18-12-36-36-36h-156v-102h330c36 0 66-30 66-66v-528c0-36-30-66-66-66v0 0zM476 716c0-18 12-36 36-36 18 0 36 12 36 36 0 18-12 36-36 36-18-6-36-18-36-36 0 0 0 0 0 0zM98 638c0-24 0-450 0-456 0-18 6-30 30-30s744 0 768 0c24 0 30 12 30 36 0 66 0 402 0 450 0 18-6 24-24 24-18 0-768 0-780 0-12 0-24 0-24-24z" p-id="2941" fill="#8a8a8a"></path></svg>