<?xml version="1.0" standalone="no"?><!DOCTYPE svg PUBLIC "-//W3C//DTD SVG 1.1//EN" "http://www.w3.org/Graphics/SVG/1.1/DTD/svg11.dtd"><svg t="1493905264137" class="icon" style="" viewBox="0 0 1024 1024" version="1.1" xmlns="http://www.w3.org/2000/svg" p-id="11486" xmlns:xlink="http://www.w3.org/1999/xlink" width="32" height="32"><defs><style type="text/css"></style></defs><path d="M228.43392 0A228.31104 228.31104 0 0 0 0 228.22912a228.31104 228.31104 0 0 0 228.43392 228.22912h228.39296V228.22912A228.31104 228.31104 0 0 0 228.43392 0z m567.13216 41.28768c49.9712 0 96.99328 19.456 132.34176 54.76352a185.63072 185.63072 0 0 1 54.80448 132.17792 185.63072 185.63072 0 0 1-54.80448 132.17792 185.99936 185.99936 0 0 1-132.3008 54.76352h-187.1872V228.22912a185.5488 185.5488 0 0 1 54.84544-132.17792 185.99936 185.99936 0 0 1 132.3008-54.76352z m0-41.28768a228.31104 228.31104 0 0 0-228.39296 228.22912v228.22912h228.39296A228.31104 228.31104 0 0 0 1024 228.22912 228.31104 228.31104 0 0 0 795.56608 0z m0 1024A228.31104 228.31104 0 0 0 1024 795.77088a228.31104 228.31104 0 0 0-228.43392-228.22912h-228.39296v228.22912A228.31104 228.31104 0 0 0 795.56608 1024zM228.43392 1024A228.31104 228.31104 0 0 1 0 795.77088a228.31104 228.31104 0 0 1 228.43392-228.22912h228.39296v228.22912A228.31104 228.31104 0 0 1 228.43392 1024z" fill="#EAA128" p-id="11487"></path></svg>