<?xml version="1.0" standalone="no"?><!DOCTYPE svg PUBLIC "-//W3C//DTD SVG 1.1//EN" "http://www.w3.org/Graphics/SVG/1.1/DTD/svg11.dtd"><svg t="1493904702446" class="icon" style="" viewBox="0 0 1029 1024" version="1.1" xmlns="http://www.w3.org/2000/svg" p-id="8543" xmlns:xlink="http://www.w3.org/1999/xlink" width="32.15625" height="32"><defs><style type="text/css"></style></defs><path d="M948.599795 325.800924c-1.319747-16.984132-12.206647-40.67867-32.753081-52.63152-19.127198-11.067603-44.039965-20.117009-66.432015-28.051735l0-55.5441c0-36.204727-30.175513-65.647273-67.337565-65.647273l-149.344627 0c-37.057487 0-67.351777 29.442546-67.351777 65.647273l0 47.665209c-1.319747 0.388818-2.627312 0.781696-4.059746 1.172545-21.24793 6.256617-41.749696 12.236087-56.746085 18.046021-59.042446-27.712662-120.77616-41.790304-183.879367-41.790304-127.413474 0-216.631432 56.544063-226.535628 63.081887-18.332304 12.291923-29.206006 32.515526-29.206006 54.139077l0 492.315462c0 20.333244 9.453451 39.165022 25.883289 51.850838 15.979093 12.121371 37.219918 16.706985 57.378549 11.95488 1.032448-0.167506 101.867228-23.857984 202.197458-23.857984 55.152237 0 94.48578 8.825048 136.573535 22.010338 3.842495 1.234471 11.912242 3.750113 22.104751 3.750113 9.68593 0 17.411527-2.29433 21.254022-3.466874 1.026357-0.335013 96.944571-26.092418 155.807328-26.092418 57.551131 0 116.821995 12.793427 152.151628 20.339335 5.155136 1.165438 9.734659 2.062866 14.377123 3.07095 5.843435 1.229395 16.604451 3.465859 28.39893 3.465859 13.921303 0 25.833545-3.188712 35.457547-9.275793 20.488568-13.021844 32.24041-33.46879 32.24041-55.986723L948.778468 329.65154 948.599795 325.800924zM888.129992 835.544156c-0.519777 0.277147-2.760302 1.000978-7.109377 1.000978-6.236313 0-13.113212-1.392841-18.037899-2.397879-4.00188-0.895398-8.589524-1.843585-13.514212-2.960295-37.387424-8.048428-100.090645-21.51391-163.376586-21.51391-65.849296 0-165.434376 26.710669-170.359064 27.9959-5.610956 1.674049-9.390509 1.280155-12.938599 0.218266-46.730219-14.747668-90.538721-24.415324-152.438927-24.415324-107.768529 0-213.479267 24.977739-214.391923 25.199051-4.587644 1.119755-9.622988 0-13.121333-2.627312-3.835388-2.960295-6.005865-7.093134-6.005865-11.841178L116.836207 331.888004c0-4.918596 2.514626-9.498119 6.581478-12.236087 8.359076-5.531771 85.326735-54.249733 197.218966-54.249733 58.748041 0 116.413888 14.021807 171.453439 41.678633l12.130507 6.093171 12.032034-6.370318c8.421003-4.357196 29.487214-10.786396 49.182919-16.595314l-0.112686 347.819383 125.867339-60.787558c12.770077-5.704354 20.509887-5.704354 32.584559-0.340089l125.637906 60.233264-0.168522-337.987267c14.603511 5.476951 29.380619 11.512257 39.974129 17.662279 3.891224 2.286208 7.036283 9.381372 7.44439 12.674649l0.055835 492.536774C896.777382 827.218581 893.854649 831.852924 888.129992 835.544156zM414.379312 416.650293l-193.150084 0c-13.171077 0-23.882349 10.450368-23.882349 23.243794 0 12.855353 10.655436 23.243794 23.882349 23.243794l193.213025 0c13.171077 0 23.818392-10.388441 23.818392-23.243794C438.205826 427.10066 427.556481 416.650293 414.379312 416.650293zM414.379312 513.928861l-193.150084 0c-13.171077 0-23.882349 10.393517-23.882349 23.242779 0 12.857384 10.655436 23.243794 23.882349 23.243794l193.213025 0c13.171077 0 23.818392-10.386411 23.818392-23.243794C438.261661 524.321363 427.556481 513.928861 414.379312 513.928861zM414.379312 608.633923l-193.150084 0c-13.171077 0-23.882349 10.450368-23.882349 23.249885 0 12.790381 10.655436 23.238718 23.882349 23.238718l193.213025 0c13.171077 0 23.818392-10.448337 23.818392-23.238718C438.261661 619.084291 427.556481 608.633923 414.379312 608.633923z" p-id="8544" fill="#d81e06"></path></svg>