<?xml version="1.0" standalone="no"?><!DOCTYPE svg PUBLIC "-//W3C//DTD SVG 1.1//EN" "http://www.w3.org/Graphics/SVG/1.1/DTD/svg11.dtd"><svg t="1497625343935" class="icon" style="" viewBox="0 0 1024 1024" version="1.1" xmlns="http://www.w3.org/2000/svg" p-id="1445" xmlns:xlink="http://www.w3.org/1999/xlink" width="32" height="32"><defs><style type="text/css"></style></defs><path d="M1024 301.511111c0-150.755556-122.311111-270.222222-270.222222-270.222222-105.244444 0-196.266667 59.733333-241.777778 147.911111-45.511111-88.177778-136.533333-147.911111-241.777778-147.911111C122.311111 31.288889 0 153.6 0 301.511111c0 2.844444 0 8.533333 0 11.377778 0 5.688889 0 8.533333 0 14.222222 0 221.866667 318.577778 489.244444 452.266667 594.488889 0 0 0 0 0 0 17.066667 14.222222 36.977778 22.755556 56.888889 22.755556 22.755556 0 42.666667-8.533333 59.733333-22.755556 0 0 0 0 0 0 133.688889-102.4 452.266667-369.777778 452.266667-594.488889 0-5.688889 0-8.533333 0-14.222222C1024 310.044444 1024 307.2 1024 301.511111zM961.422222 327.111111c-17.066667 190.577778-216.177778 369.777778-344.177778 466.488889l0 0-22.755556 14.222222c0 0-2.844444 2.844444-2.844444 2.844444 0 0 0 0 0 0l-82.488889 56.888889-79.644444-56.888889c0 0 0 0 0 0-2.844444-2.844444-8.533333-5.688889-11.377778-8.533333l-14.222222-8.533333 0 0C275.911111 696.888889 71.111111 512 59.733333 318.577778c0-5.688889 0-11.377778 0-14.222222 0-116.622222 93.866667-210.488889 210.488889-210.488889 93.866667 0 173.511111 62.577778 201.955556 147.911111 0 0 0 0 0 0 0 22.755556 17.066667 39.822222 39.822222 39.822222s39.822222-17.066667 39.822222-39.822222c0 0 0 0 0 0 25.6-85.333333 105.244444-147.911111 201.955556-147.911111 116.622222 0 210.488889 93.866667 210.488889 210.488889C964.266667 310.044444 964.266667 318.577778 961.422222 327.111111z" p-id="1446" fill="#ffffff"></path></svg>