<?xml version="1.0" standalone="no"?><!DOCTYPE svg PUBLIC "-//W3C//DTD SVG 1.1//EN" "http://www.w3.org/Graphics/SVG/1.1/DTD/svg11.dtd"><svg t="1495969858214" class="icon" style="" viewBox="0 0 1024 1024" version="1.1" xmlns="http://www.w3.org/2000/svg" p-id="4494" xmlns:xlink="http://www.w3.org/1999/xlink" width="32" height="32"><defs><style type="text/css"></style></defs><path d="M506.333442 8.422833c-235.066737 0-426.366667 191.270255-426.366667 426.367691 0 226.216161 359.184569 513.306762 400.156726 545.285081l26.209942 20.499893 26.240641-20.499893c40.972157-31.978319 400.157749-319.068919 400.157749-545.285081C932.731832 199.694111 741.431901 8.422833 506.333442 8.422833zM506.333442 891.694695C391.24117 796.370653 165.253206 579.347874 165.253206 434.791547c0-188.045817 153.024186-341.112981 341.080236-341.112981 188.087772 0 341.112981 153.067164 341.112981 341.112981C847.446423 579.347874 621.42776 796.370653 506.333442 891.694695z" p-id="4495" fill="#8a8a8a"></path><path d="M508.189719 260.736373c-90.709955 0-164.402327 73.736375-164.402327 164.403351 0 90.6373 73.693396 164.372651 164.402327 164.372651 90.597391 0 164.376745-73.735351 164.376745-164.372651C672.566464 334.471724 598.78711 260.736373 508.189719 260.736373zM508.189719 504.235153c-43.655266 0-79.114872-35.46677-79.114872-79.095429 0-43.657312 35.459606-79.116919 79.114872-79.116919 43.586704 0 79.089289 35.459606 79.089289 79.116919C587.279009 468.768383 551.7754 504.235153 508.189719 504.235153z" p-id="4496" fill="#8a8a8a"></path></svg>