<?xml version="1.0" standalone="no"?><!DOCTYPE svg PUBLIC "-//W3C//DTD SVG 1.1//EN" "http://www.w3.org/Graphics/SVG/1.1/DTD/svg11.dtd"><svg t="1493829678007" class="icon" style="" viewBox="0 0 1024 1024" version="1.1" xmlns="http://www.w3.org/2000/svg" p-id="2386" xmlns:xlink="http://www.w3.org/1999/xlink" width="32" height="32"><defs><style type="text/css"></style></defs><path d="M980.936074 571.668812h-143.141161a42.743986 42.743986 0 0 0-42.807973 42.743986v350.590264h-79.921015V425.008311h72.306443a25.787165 25.787165 0 0 0 0.127976-36.409173L533.339999 205.785415c-0.895832-0.895832-2.047616-1.27976-3.007436-1.983628v-38.520777c15.357121 3.1994 38.200837 7.550584 48.118977 7.550584 15.997001 0 63.284134-10.87796 63.284135-10.87796V88.815347s-47.287134 9.086296-63.284135 9.086296c-11.005936 0-37.560957-4.415172-52.53415-7.102668a15.101169 15.101169 0 0 0-25.91514 10.558021v102.444791c-1.023808 0.703868-2.175592 1.087796-3.071425 1.983628L242.834469 388.599138a25.787165 25.787165 0 0 0 0 36.409173h72.434418v539.994751H228.69312V614.412798a42.679998 42.679998 0 0 0-42.807973-42.743986H42.807974c-23.675561 0-42.871962 19.132413-42.871962 42.743986v366.587264c0 23.611573 19.196401 42.871962 42.871962 42.871962H961.099794l0.255952-0.127976h19.644316a42.807974 42.807974 0 0 0 42.807974-42.743986V614.412798a42.871962 42.871962 0 0 0-42.871962-42.743986z m-529.052802 142.565269H578.45154c23.675561 0 42.807974 19.132413 42.807974 42.871962v162.337561a42.743986 42.743986 0 0 1-42.807974 42.743986H451.883272a42.807974 42.807974 0 0 1-42.871962-42.743986v-162.337561c0-23.739549 19.196401-42.871962 42.871962-42.871962z m-33.977629-162.337562a97.261763 97.261763 0 1 1 194.523527 0 97.261763 97.261763 0 0 1-194.523527 0z m444.204711 85.615947h94.51028a21.371993 21.371993 0 1 1 0 42.871962h-94.51028a21.499969 21.499969 0 1 1 0-42.871962z m-0.127976 89.199276h94.638256a21.308005 21.308005 0 1 1 0 42.743985h-94.638256a21.371993 21.371993 0 0 1 0-42.743985z m0 87.023683h94.638256a21.499969 21.499969 0 1 1 0 42.999937h-94.638256c-11.773792 0-21.371993-9.5982-21.371992-21.499969s9.5982-21.499969 21.371992-21.499968zM67.123414 637.512466h94.51028a21.371993 21.371993 0 0 1 0 42.871962H67.123414a21.435981 21.435981 0 1 1 0-42.871962z m0 89.199276h94.51028c11.83778 0 21.371993 9.470224 21.371992 21.499968 0 11.773792-9.5982 21.244017-21.371992 21.244017H67.123414a21.435981 21.435981 0 0 1 0-42.743985z m-21.43598 108.523651c0-11.901768 9.5982-21.499969 21.43598-21.499968h94.51028a21.499969 21.499969 0 0 1 0 42.999937H67.123414a21.499969 21.499969 0 0 1-21.43598-21.499969z" p-id="2387" fill="#1296db"></path></svg>